<svg width="200" height="200" viewBox="0 0 200 200" xmlns="http://www.w3.org/2000/svg">
  <defs>
    <linearGradient id="grad1" x1="0%" y1="0%" x2="100%" y2="100%">
      <stop offset="0%" style="stop-color:#1976D2;stop-opacity:1" />
      <stop offset="100%" style="stop-color:#42A5F5;stop-opacity:1" />
    </linearGradient>
  </defs>
  <!-- Main Structure Frame -->
  <path d="M30,160 L60,80 L100,40 L140,80 L170,160 Z" fill="none" stroke="url(#grad1)" stroke-width="4" />
  <!-- Support Beams -->
  <g stroke="#1976D2" stroke-width="3">
    <line x1="60" y1="80" x2="60" y2="160" />
    <line x1="100" y1="40" x2="100" y2="160" />
    <line x1="140" y1="80" x2="140" y2="160" />
  </g>
  <!-- Cross Supports -->
  <g stroke="#42A5F5" stroke-width="2">
    <line x1="30" y1="100" x2="170" y2="100" />
    <line x1="30" y1="130" x2="170" y2="130" />
    <line x1="60" y1="80" x2="140" y2="80" />
  </g>
  <!-- Connection Points -->
  <g fill="#1976D2">
    <circle cx="60" cy="80" r="4" />
    <circle cx="100" cy="40" r="4" />
    <circle cx="140" cy="80" r="4" />
    <circle cx="30" cy="160" r="4" />
    <circle cx="170" cy="160" r="4" />
  </g>
  <!-- Structural Details -->
  <g fill="none" stroke="#BBDEFB" stroke-width="1">
    <path d="M40,120 L60,120 M80,120 L100,120 M120,120 L140,120 M160,120 L170,120" />
    <path d="M40,90 L60,90 M80,90 L100,90 M120,90 L140,90 M160,90 L170,90" />
  </g>
  <!-- Foundation -->
  <rect x="20" y="160" width="160" height="10" fill="#1976D2" />
  <!-- Measurement Lines -->
  <g stroke="#90CAF9" stroke-width="1" stroke-dasharray="4">
    <line x1="20" y1="170" x2="20" y2="180" />
    <line x1="180" y1="170" x2="180" y2="180" />
    <line x1="20" y1="175" x2="180" y2="175" />
  </g>
</svg>