<svg width="200" height="200" viewBox="0 0 200 200" xmlns="http://www.w3.org/2000/svg">
  <defs>
    <linearGradient id="grad1" x1="0%" y1="0%" x2="100%" y2="100%">
      <stop offset="0%" style="stop-color:#43A047;stop-opacity:1" />
      <stop offset="100%" style="stop-color:#66BB6A;stop-opacity:1" />
    </linearGradient>
  </defs>
  <!-- Greenhouse Structure -->
  <path d="M40,120 L100,70 L160,120 L160,160 L40,160 Z" fill="url(#grad1)" />
  <!-- Glass Panels -->
  <g fill="none" stroke="#C8E6C9" stroke-width="1">
    <line x1="60" y1="90" x2="60" y2="160" />
    <line x1="80" y1="85" x2="80" y2="160" />
    <line x1="100" y1="70" x2="100" y2="160" />
    <line x1="120" y1="85" x2="120" y2="160" />
    <line x1="140" y1="90" x2="140" y2="160" />
    <line x1="40" y1="120" x2="160" y2="120" />
    <line x1="40" y1="140" x2="160" y2="140" />
  </g>
  <!-- Foundation -->
  <rect x="35" y="160" width="130" height="10" fill="#795548" />
  <!-- Door -->
  <rect x="90" y="130" width="20" height="30" fill="#81C784" />
  <!-- Construction Elements -->
  <g stroke="#2E7D32" stroke-width="3" fill="none">
    <line x1="40" y1="120" x2="40" y2="160" />
    <line x1="160" y1="120" x2="160" y2="160" />
    <line x1="40" y1="120" x2="100" y2="70" />
    <line x1="100" y1="70" x2="160" y2="120" />
  </g>
  <!-- Construction Tools -->
  <circle cx="30" cy="40" r="10" fill="#FFA000" />
  <rect x="160" y="30" width="20" height="20" fill="#0288D1" />
  <!-- Connection Lines -->
  <g stroke="#90A4AE" stroke-width="1" stroke-dasharray="4">
    <line x1="30" y1="50" x2="40" y2="120" />
    <line x1="160" y1="50" x2="160" y2="120" />
  </g>
</svg>