<svg width="200" height="200" viewBox="0 0 200 200" xmlns="http://www.w3.org/2000/svg">
  <defs>
    <linearGradient id="grad1" x1="0%" y1="0%" x2="100%" y2="100%">
      <stop offset="0%" style="stop-color:#0288D1;stop-opacity:1" />
      <stop offset="100%" style="stop-color:#29B6F6;stop-opacity:1" />
    </linearGradient>
    <linearGradient id="grad2" x1="0%" y1="0%" x2="100%" y2="100%">
      <stop offset="0%" style="stop-color:#0097A7;stop-opacity:1" />
      <stop offset="100%" style="stop-color:#00BCD4;stop-opacity:1" />
    </linearGradient>
  </defs>
  <!-- Water Tank -->
  <rect x="30" y="100" width="60" height="80" rx="5" fill="url(#grad1)" />
  <!-- Water Level -->
  <rect x="35" y="130" width="50" height="45" fill="#E1F5FE" opacity="0.6" />
  <!-- Pipes -->
  <path d="M90,140 L120,140 L120,80 L150,80" stroke="#29B6F6" stroke-width="4" fill="none" />
  <!-- Sprinkler System -->
  <g transform="translate(150,80)">
    <circle cx="0" cy="0" r="10" fill="url(#grad2)" />
    <g stroke="#E1F5FE" stroke-width="1">
      <line x1="-8" y1="-8" x2="-15" y2="-15" />
      <line x1="8" y1="-8" x2="15" y2="-15" />
      <line x1="-8" y1="8" x2="-15" y2="15" />
      <line x1="8" y1="8" x2="15" y2="15" />
    </g>
  </g>
  <!-- Control Panel -->
  <rect x="140" y="120" width="30" height="40" rx="5" fill="#0288D1" />
  <circle cx="155" cy="130" r="3" fill="#E1F5FE" />
  <rect x="145" y="140" width="20" height="2" fill="#E1F5FE" />
  <rect x="145" y="145" width="20" height="2" fill="#E1F5FE" />
  <!-- Water Drops -->
  <g fill="#29B6F6">
    <path d="M145,40 L150,50 L155,40 Z" />
    <path d="M165,50 L170,60 L175,50 Z" />
    <path d="M125,50 L130,60 L135,50 Z" />
  </g>
  <!-- Flow Indicators -->
  <g fill="none" stroke="#B3E5FC" stroke-width="1" stroke-dasharray="4">
    <path d="M95,135 L95,145" />
    <path d="M105,135 L105,145" />
    <path d="M115,135 L115,145" />
  </g>
</svg>