<svg xmlns="http://www.w3.org/2000/svg" viewBox="0 0 100 100">
  <!-- Background -->
  <rect width="100" height="100" fill="#F8F9FA"/>
  
  <!-- Project Timeline -->
  <path d="M20 40 H80" stroke="#2E7D32" stroke-width="2" stroke-linecap="round"/>
  <circle cx="30" cy="40" r="4" fill="#1976D2"/>
  <circle cx="50" cy="40" r="4" fill="#1976D2"/>
  <circle cx="70" cy="40" r="4" fill="#1976D2"/>
  
  <!-- Management Chart -->
  <path d="M50 50 L35 65 M50 50 L50 65 M50 50 L65 65" stroke="#2E7D32" stroke-width="1.5" fill="none"/>
  <circle cx="50" cy="50" r="3" fill="#1976D2"/>
  <circle cx="35" cy="65" r="3" fill="#1976D2"/>
  <circle cx="50" cy="65" r="3" fill="#1976D2"/>
  <circle cx="65" cy="65" r="3" fill="#1976D2"/>
  
  <!-- Training Icon -->
  <path d="M42.5 20 H57.5 L55 25 H45 Z" fill="#2E7D32"/>
  <rect x="47.5" y="25" width="5" height="7.5" fill="#1976D2"/>
  
  <!-- Document Icons -->
  <rect x="20" y="75" width="7.5" height="10" rx="1" fill="#2E7D32"/>
  <rect x="46.25" y="75" width="7.5" height="10" rx="1" fill="#2E7D32"/>
  <rect x="72.5" y="75" width="7.5" height="10" rx="1" fill="#2E7D32"/>
  
  <!-- Connecting Lines -->
  <path d="M27.5 80 H46.25 M53.75 80 H72.5" stroke="#1976D2" stroke-width="1" stroke-dasharray="2"/>
</svg>