<svg xmlns="http://www.w3.org/2000/svg" viewBox="0 0 100 100">
  <!-- Background -->
  <rect width="100" height="100" fill="#F8F9FA"/>
  
  <!-- Water Droplet -->
  <path d="M40 20 Q40 40 30 50 Q20 60 30 70 Q40 80 50 70 Q60 60 50 50 Q40 40 40 20" fill="#1976D2" opacity="0.8"/>
  
  <!-- Electrical Symbol -->
  <path d="M60 20 L70 40 L50 45 L60 65 L40 50 L60 45 L50 25 Z" fill="#2E7D32" opacity="0.8"/>
  
  <!-- Infrastructure Lines -->
  <path d="M20 80 Q50 70 80 80" stroke="#1976D2" stroke-width="1.5" fill="none"/>
  <path d="M20 75 Q50 65 80 75" stroke="#2E7D32" stroke-width="1.5" fill="none"/>
  
  <!-- Connection Points -->
  <circle cx="30" cy="77.5" r="2" fill="#1976D2"/>
  <circle cx="50" cy="72.5" r="2" fill="#1976D2"/>
  <circle cx="70" cy="77.5" r="2" fill="#1976D2"/>
  
  <!-- Circuit Elements -->
  <rect x="35" y="55" width="10" height="5" fill="#2E7D32"/>
  <rect x="55" y="55" width="10" height="5" fill="#2E7D32"/>
  
  <!-- Flow Indicators -->
  <path d="M25 65 L35 65 L30 70 Z" fill="#1976D2"/>
  <path d="M65 65 L75 65 L70 70 Z" fill="#1976D2"/>
</svg>