<svg xmlns="http://www.w3.org/2000/svg" viewBox="0 0 400 300">
  <defs>
    <linearGradient id="leafGradient" x1="0%" y1="0%" x2="100%" y2="100%">
      <stop offset="0%" style="stop-color:#66BB6A"/>
      <stop offset="100%" style="stop-color:#388E3C"/>
    </linearGradient>
  </defs>
  <rect width="400" height="300" fill="#E8F5E9"/>
  <!-- Sustainable Farm Elements -->
  <g transform="translate(100,150)">
    <!-- Solar Panel -->
    <rect x="0" y="0" width="60" height="40" fill="#1976D2"/>
    <line x1="0" y1="20" x2="60" y2="20" stroke="#BBDEFB" stroke-width="2"/>
    <line x1="20" y1="0" x2="20" y2="40" stroke="#BBDEFB" stroke-width="2"/>
    <line x1="40" y1="0" x2="40" y2="40" stroke="#BBDEFB" stroke-width="2"/>
  </g>
  <!-- Wind Turbine -->
  <g transform="translate(250,160)">
    <rect x="-5" y="0" width="10" height="80" fill="#90A4AE"/>
    <g transform="translate(0,0)">
      <path d="M0,0 L-40,-20 L-45,-25 L-5,-5 Z" fill="#78909C"/>
      <path d="M0,0 L40,-20 L45,-25 L5,-5 Z" fill="#78909C"/>
      <path d="M0,0 L0,40 L0,45 L0,5 Z" fill="#78909C"/>
      <circle cx="0" cy="0" r="5" fill="#546E7A"/>
    </g>
  </g>
  <!-- Plants and Nature -->
  <g transform="translate(50,200)">
    <path d="M0,0 Q25,-30 50,0" stroke="url(#leafGradient)" stroke-width="4" fill="none"/>
    <path d="M10,0 Q35,-25 60,0" stroke="url(#leafGradient)" stroke-width="4" fill="none"/>
    <path d="M20,0 Q45,-20 70,0" stroke="url(#leafGradient)" stroke-width="4" fill="none"/>
  </g>
  <!-- Recycling Symbol -->
  <g transform="translate(180,100)">
    <path d="M0,-20 A20,20 0 0,1 17.32,10 L8.66,5 L17.32,10 L13.32,19.32 Z" fill="#4CAF50"/>
    <path d="M17.32,10 A20,20 0 0,1 -17.32,10 L-13.32,0 L-17.32,10 L-26,5 Z" fill="#4CAF50"/>
    <path d="M-17.32,10 A20,20 0 0,1 0,-20 L0,-10 L0,-20 L8.66,-15 Z" fill="#4CAF50"/>
  </g>
</svg>