<svg xmlns="http://www.w3.org/2000/svg" viewBox="0 0 400 300">
  <defs>
    <linearGradient id="globeGradient" x1="0%" y1="0%" x2="100%" y2="100%">
      <stop offset="0%" style="stop-color:#42A5F5"/>
      <stop offset="100%" style="stop-color:#1976D2"/>
    </linearGradient>
    <linearGradient id="buildingGradient" x1="0%" y1="0%" x2="100%" y2="100%">
      <stop offset="0%" style="stop-color:#90A4AE"/>
      <stop offset="100%" style="stop-color:#546E7A"/>
    </linearGradient>
  </defs>
  <rect width="400" height="300" fill="#E3F2FD"/>
  <!-- Globe -->
  <g transform="translate(200,150)">
    <circle cx="0" cy="0" r="60" fill="url(#globeGradient)"/>
    <!-- Latitude Lines -->
    <path d="M-60,0 Q-30,20 0,20 Q30,20 60,0" fill="none" stroke="white" stroke-width="2"/>
    <path d="M-60,0 Q-30,-20 0,-20 Q30,-20 60,0" fill="none" stroke="white" stroke-width="2"/>
    <!-- Longitude Lines -->
    <path d="M0,-60 Q20,-30 20,0 Q20,30 0,60" fill="none" stroke="white" stroke-width="2"/>
    <path d="M0,-60 Q-20,-30 -20,0 Q-20,30 0,60" fill="none" stroke="white" stroke-width="2"/>
  </g>
  <!-- Conference Building -->
  <g transform="translate(100,200)">
    <path d="M0,0 L40,-60 L80,0 Z" fill="url(#buildingGradient)"/>
    <rect x="10" y="-20" width="60" height="20" fill="#ECEFF1"/>
    <rect x="20" y="-40" width="40" height="20" fill="#ECEFF1"/>
  </g>
  <!-- People Icons -->
  <g transform="translate(300,200)">
    <circle cx="-20" cy="-20" r="10" fill="#FFA726"/>
    <circle cx="0" cy="-30" r="10" fill="#FF7043"/>
    <circle cx="20" cy="-20" r="10" fill="#9CCC65"/>
  </g>
  <!-- Connection Lines -->
  <g transform="translate(200,150)" stroke="#90A4AE" stroke-width="2" stroke-dasharray="4">
    <line x1="-40" y1="-40" x2="-80" y2="-80"/>
    <line x1="40" y1="-40" x2="80" y2="-80"/>
    <line x1="0" y1="-50" x2="0" y2="-90"/>
  </g>
</svg>