<svg width="200" height="200" viewBox="0 0 200 200" fill="none" xmlns="http://www.w3.org/2000/svg">
  <rect width="200" height="200" rx="10" fill="#F5F5F5"/>
  <path d="M100 50C77.9086 50 60 67.9086 60 90C60 112.091 77.9086 130 100 130C122.091 130 140 112.091 140 90C140 67.9086 122.091 50 100 50ZM100 120C83.4315 120 70 106.569 70 90C70 73.4315 83.4315 60 100 60C116.569 60 130 73.4315 130 90C130 106.569 116.569 120 100 120Z" fill="#4CAF50"/>
  <path d="M95 80L85 90L95 100M105 80L115 90L105 100" fill="#4CAF50"/>
  <path d="M100 140C89.0571 140 80 149.057 80 160C80 170.943 89.0571 180 100 180C110.943 180 120 170.943 120 160C120 149.057 110.943 140 100 140ZM100 170C94.4772 170 90 165.523 90 160C90 154.477 94.4772 150 100 150C105.523 150 110 154.477 110 160C110 165.523 105.523 170 100 170Z" fill="#4CAF50"/>
  <path d="M100 20C94.4772 20 90 24.4772 90 30C90 35.5228 94.4772 40 100 40C105.523 40 110 35.5228 110 30C110 24.4772 105.523 20 100 20Z" fill="#4CAF50"/>
</svg>