<svg width="200" height="200" viewBox="0 0 200 200" xmlns="http://www.w3.org/2000/svg">
  <defs>
    <linearGradient id="grad1" x1="0%" y1="0%" x2="100%" y2="100%">
      <stop offset="0%" style="stop-color:#2196F3;stop-opacity:1" />
      <stop offset="100%" style="stop-color:#03A9F4;stop-opacity:1" />
    </linearGradient>
    <linearGradient id="grad2" x1="0%" y1="0%" x2="100%" y2="0%">
      <stop offset="0%" style="stop-color:#FDD835;stop-opacity:1" />
      <stop offset="100%" style="stop-color:#FFB300;stop-opacity:1" />
    </linearGradient>
  </defs>
  <!-- Sun -->
  <circle cx="160" cy="40" r="20" fill="url(#grad2)" />
  <g stroke="#FFB300" stroke-width="2">
    <line x1="160" y1="10" x2="160" y2="0" />
    <line x1="160" y1="70" x2="160" y2="80" />
    <line x1="130" y1="40" x2="120" y2="40" />
    <line x1="190" y1="40" x2="200" y2="40" />
    <line x1="139" y1="19" x2="132" y2="12" />
    <line x1="181" y1="61" x2="188" y2="68" />
    <line x1="181" y1="19" x2="188" y2="12" />
    <line x1="139" y1="61" x2="132" y2="68" />
  </g>
  <!-- Solar Panels -->
  <g transform="translate(40,80)">
    <rect width="120" height="80" rx="5" fill="url(#grad1)" />
    <g fill="none" stroke="#E3F2FD" stroke-width="1">
      <line x1="30" y1="0" x2="30" y2="80" />
      <line x1="60" y1="0" x2="60" y2="80" />
      <line x1="90" y1="0" x2="90" y2="80" />
      <line x1="0" y1="20" x2="120" y2="20" />
      <line x1="0" y1="40" x2="120" y2="40" />
      <line x1="0" y1="60" x2="120" y2="60" />
    </g>
  </g>
  <!-- Energy Flow -->
  <path d="M100,40 Q80,60 100,80" stroke="#FFB300" stroke-width="2" fill="none" stroke-dasharray="4" />
  <path d="M40,170 Q100,160 160,170" stroke="#2196F3" stroke-width="2" fill="none" />
</svg>