<svg width="200" height="200" viewBox="0 0 200 200" xmlns="http://www.w3.org/2000/svg">
  <defs>
    <linearGradient id="grad1" x1="0%" y1="0%" x2="100%" y2="100%">
      <stop offset="0%" style="stop-color:#4CAF50;stop-opacity:1" />
      <stop offset="100%" style="stop-color:#8BC34A;stop-opacity:1" />
    </linearGradient>
  </defs>
  <!-- Solar Panel -->
  <rect x="40" y="40" width="120" height="80" rx="5" fill="url(#grad1)" />
  <g fill="none" stroke="#E8F5E9" stroke-width="2">
    <line x1="60" y1="40" x2="60" y2="120" />
    <line x1="80" y1="40" x2="80" y2="120" />
    <line x1="100" y1="40" x2="100" y2="120" />
    <line x1="120" y1="40" x2="120" y2="120" />
    <line x1="140" y1="40" x2="140" y2="120" />
    <line x1="40" y1="60" x2="160" y2="60" />
    <line x1="40" y1="80" x2="160" y2="80" />
    <line x1="40" y1="100" x2="160" y2="100" />
  </g>
  <!-- Wind Turbine -->
  <circle cx="100" cy="140" r="5" fill="#4CAF50" />
  <line x1="100" y1="140" x2="100" y2="170" stroke="#4CAF50" stroke-width="4" />
  <path d="M100,140 l-30,-20 a40,40 0 0,1 60,0 z" fill="#8BC34A" />
  <!-- Energy Flow Lines -->
  <path d="M70,180 Q100,160 130,180" stroke="#4CAF50" stroke-width="2" fill="none" />
  <path d="M80,185 Q100,165 120,185" stroke="#8BC34A" stroke-width="2" fill="none" />
</svg>